<svg width="512" height="512" viewBox="0 0 512 512" fill="none" xmlns="http://www.w3.org/2000/svg">
<path d="M499.2 203.5L376.2 15.7C373 10.8 366.1 8.80001 360.4 13.6L87 240.2C82.8 243.3 81.7 249.6 84.9 253.8L209 441.6C212.8 447.3 220.6 446.7 223.7 443.7L497.1 217.1C501.3 214 502.3 207.7 499.2 203.5V203.5ZM352.1 47.9L314.1 263.3L119.6 240.1L352.1 47.9V47.9ZM219.5 419.6L115.4 260.9L322.5 286.4H323.6C327.8 286.4 333.1 282.2 334.1 275.9L373.6 48.9L477.1 206.7L219.5 419.6V419.6Z" fill="white"/>
<path d="M75.8 322L11 375.6L24.4 391.7L89.2 338.2L75.8 322Z" fill="white"/>
<path d="M97 376.2L32.3 429.7L45.7 445.9L110.4 392.3L97 376.2Z" fill="white"/>
<path d="M54.2 484.7L67.6 500.9L132.4 447.3L118.9 431.2L54.2 484.7Z" fill="white"/>
</svg>
